<?xml version="1.0" standalone="no"?>
<!DOCTYPE svg PUBLIC "-//W3C//DTD SVG 20010904//EN"
 "http://www.w3.org/TR/2001/REC-SVG-20010904/DTD/svg10.dtd">
<svg version="1.0" xmlns="http://www.w3.org/2000/svg"
 width="512.000000pt" height="512.000000pt" viewBox="0 0 512.000000 512.000000"
 preserveAspectRatio="xMidYMid meet">
<metadata>
Created by potrace 1.11, written by Peter Selinger 2001-2013
</metadata>
<g transform="translate(0.000000,512.000000) scale(0.100000,-0.100000)"
fill="#000000" stroke="none">
<path d="M2210 4510 c-63 -10 -122 -20 -130 -23 -8 -4 -33 -9 -55 -12 -22 -3
-41 -10 -43 -15 -2 -5 -10 -6 -18 -3 -8 3 -14 0 -14 -5 0 -6 -25 -16 -55 -23
-31 -7 -58 -16 -61 -21 -3 -4 -16 -8 -30 -8 -13 0 -32 -8 -43 -19 -10 -10 -43
-27 -72 -36 -30 -10 -66 -26 -81 -37 -16 -11 -28 -17 -28 -13 0 3 -12 -6 -27
-20 -16 -14 -38 -28 -50 -31 -12 -3 -24 -12 -27 -21 -3 -8 -10 -11 -16 -8 -5
3 -10 1 -10 -4 0 -6 -6 -11 -13 -11 -7 0 -30 -16 -51 -35 -21 -19 -42 -35 -46
-35 -4 0 -28 -18 -54 -41 -25 -22 -46 -38 -46 -36 0 3 -29 -24 -64 -61 l-65
-66 27 -17 c54 -33 73 -68 143 -264 257 -722 423 -1184 435 -1212 18 -44 57
-46 79 -3 8 16 157 352 331 747 175 398 324 726 336 736 28 24 72 21 101 -5
16 -15 140 -287 348 -761 210 -480 330 -742 343 -749 14 -8 23 -6 37 8 15 16
132 331 466 1249 36 99 75 192 85 208 22 30 86 67 117 67 35 0 32 16 -12 58
-62 60 -159 142 -167 142 -4 0 -25 16 -46 35 -21 19 -44 35 -51 35 -7 0 -13 5
-13 11 0 5 -5 7 -10 4 -6 -3 -13 0 -16 8 -3 9 -15 18 -27 21 -12 3 -34 17 -49
31 -16 14 -28 23 -28 20 0 -4 -12 2 -27 13 -16 11 -52 27 -82 37 -29 9 -62 26
-72 36 -11 11 -30 19 -43 19 -14 0 -27 4 -30 8 -3 5 -30 14 -61 21 -30 7 -55
17 -55 23 0 5 -6 8 -14 5 -8 -3 -16 -2 -18 3 -2 5 -19 11 -38 14 -19 4 -53 10
-75 16 -177 44 -598 54 -815 20z"/>
<path d="M4173 3166 c-73 -198 -276 -757 -453 -1240 -176 -484 -328 -888 -337
-898 -21 -24 -88 -24 -108 0 -8 9 -159 341 -335 737 -410 921 -388 874 -418
882 -14 3 -29 0 -37 -8 -11 -12 -173 -366 -701 -1538 -13 -30 -32 -60 -42 -67
-24 -19 -79 -17 -100 4 -9 9 -47 100 -84 202 -77 214 -468 1296 -661 1827
-104 287 -134 360 -144 351 -7 -6 -13 -16 -13 -24 0 -7 -11 -30 -25 -50 -14
-20 -25 -47 -25 -60 0 -12 -4 -25 -9 -28 -5 -4 -12 -24 -16 -46 -4 -22 -12
-46 -19 -53 -6 -6 -18 -39 -25 -72 -7 -33 -17 -73 -21 -90 -5 -16 -14 -68 -22
-115 -18 -114 -18 -597 0 -700 22 -129 56 -264 68 -277 7 -7 15 -31 19 -53 4
-22 11 -42 16 -46 5 -3 9 -16 9 -30 0 -14 6 -27 14 -30 8 -3 13 -11 10 -18 -3
-7 2 -19 11 -26 8 -7 15 -21 15 -31 0 -10 5 -21 10 -24 6 -3 10 -13 10 -20 0
-18 90 -167 108 -178 7 -5 10 -12 7 -18 -4 -5 -1 -9 4 -9 6 0 11 -6 11 -13 0
-7 15 -30 34 -50 18 -20 31 -38 29 -41 -2 -2 15 -25 39 -51 24 -26 43 -50 43
-54 -1 -3 45 -51 102 -107 57 -56 103 -99 103 -97 0 3 21 -14 46 -36 26 -23
50 -41 54 -41 4 0 25 -16 46 -35 21 -19 44 -35 51 -35 7 0 13 -5 13 -11 0 -5
4 -8 9 -4 6 3 13 0 18 -7 4 -7 20 -19 35 -27 15 -8 37 -23 48 -33 11 -10 20
-16 20 -13 0 4 12 -2 28 -13 15 -11 53 -28 85 -38 31 -10 57 -22 57 -26 0 -5
4 -7 9 -4 5 3 11 -1 15 -9 3 -8 16 -15 30 -15 14 0 27 -4 30 -8 3 -5 30 -14
61 -21 30 -7 55 -17 55 -23 0 -5 6 -8 14 -5 8 3 16 2 18 -4 3 -10 39 -17 238
-49 176 -28 504 -28 680 0 199 32 235 39 238 49 2 6 10 7 18 4 8 -3 14 0 14 5
0 6 25 16 55 23 31 7 58 16 61 21 3 4 16 8 30 8 14 0 27 7 30 15 4 8 10 12 15
9 5 -3 9 -1 9 4 0 4 26 16 58 26 31 10 69 27 85 38 15 11 27 17 27 13 0 -3 10
3 21 14 12 11 38 28 58 37 20 9 40 23 44 30 4 8 14 14 21 14 6 0 29 16 50 35
21 19 42 35 46 35 16 0 317 279 311 288 -2 2 16 24 39 49 22 25 39 47 37 49
-2 3 11 21 29 41 19 20 34 43 34 49 0 7 6 17 14 21 7 4 21 24 30 44 9 20 25
45 34 55 9 11 25 37 36 59 10 22 22 48 27 57 5 10 9 24 9 32 0 7 7 19 15 26 9
7 14 19 11 26 -3 7 2 15 10 18 8 3 14 16 14 30 0 14 4 27 9 30 5 4 12 24 16
46 4 22 13 47 21 55 8 8 15 32 17 54 1 23 5 41 8 41 6 0 20 61 41 180 21 121
17 609 -6 730 -10 52 -20 107 -23 123 -3 15 -8 27 -12 27 -3 0 -7 18 -8 41 -2
22 -9 46 -17 54 -8 8 -17 33 -21 55 -4 22 -11 42 -16 46 -5 3 -9 16 -9 28 0
13 -11 40 -25 60 -14 20 -25 41 -25 47 0 5 -4 17 -9 27 -5 9 -18 36 -28 59
-10 23 -23 44 -28 46 -6 3 -69 -156 -142 -357z"/>
</g>
</svg>
